<svg width="1883" height="512" viewBox="0 0 1883 512" fill="none" xmlns="http://www.w3.org/2000/svg">
<path d="M1231.03 224.056V97.6319H1195.29V77.4301H1295.76V97.6319H1260.13V224.056H1231.03Z" fill="black"/>
<path d="M1094.87 224.056V77.4301H1180.89V97.6319H1123.98V139.773H1177.2V159.106H1123.98V203.854H1180.89V224.056H1094.87Z" fill="black"/>
<path d="M1026.83 224.925C1004.24 224.925 989.684 220.291 983.167 211.023C976.65 201.755 973.392 188.142 973.392 170.185H1002.39C1002.39 185.535 1004.49 195.166 1008.69 199.076C1012.89 202.913 1018.86 204.832 1026.61 204.832C1034.36 204.832 1040.33 203.203 1044.53 199.945C1048.73 196.614 1050.83 191.835 1050.83 185.608C1050.83 177.788 1048.04 172.393 1042.47 169.425C1036.89 166.383 1028.64 163.487 1017.71 160.736C1000.83 156.174 989.249 151.178 982.95 145.747C976.65 140.244 973.5 131.374 973.5 119.137C973.5 108.204 976.831 98.3199 983.493 89.4862C990.154 80.58 1004.49 76.1269 1026.5 76.1269C1048.59 76.1269 1062.92 80.942 1069.51 90.5723C1076.1 100.203 1079.4 113.381 1079.4 130.107H1050.29C1050.29 115.336 1048.15 105.995 1043.88 102.085C1039.61 98.1751 1033.71 96.2201 1026.18 96.2201C1018.36 96.2201 1012.35 97.9579 1008.15 101.433C1003.95 104.909 1001.85 109.507 1001.85 115.227C1001.85 123.047 1004.67 128.478 1010.32 131.519C1015.97 134.488 1024.22 137.42 1035.08 140.317C1052.39 144.951 1064.12 149.766 1070.27 154.762C1076.5 159.758 1079.61 168.483 1079.61 180.937C1079.61 192.305 1076.36 202.479 1069.84 211.457C1063.32 220.436 1048.99 224.925 1026.83 224.925Z" fill="black"/>
<path d="M879.235 224.056V77.4301H961.129V97.6319H908.343V146.725H957.002V166.166H908.343V224.056H879.235Z" fill="black"/>
<path d="M783.776 224.056V77.4301H865.67V97.6319H812.884V146.725H861.542V166.166H812.884V224.056H783.776Z" fill="black"/>
<path d="M713.798 225.142C691.496 225.142 676.472 219.024 668.724 206.787C661.049 194.55 657.211 175.869 657.211 150.743C657.211 125.545 661.049 106.828 668.724 94.5909C676.399 82.2816 691.424 76.1269 713.798 76.1269C736.244 76.1269 751.305 82.2816 758.981 94.5909C766.728 106.9 770.602 125.618 770.602 150.743C770.602 175.869 766.728 194.55 758.981 206.787C751.305 219.024 736.244 225.142 713.798 225.142ZM713.798 204.941C722.342 204.941 729.112 201.9 734.108 195.817C739.177 189.735 741.711 174.71 741.711 150.743C741.711 126.414 739.177 111.281 734.108 105.344C729.112 99.4061 722.342 96.4373 713.798 96.4373C705.399 96.4373 698.665 99.4061 693.596 105.344C688.6 111.281 686.102 126.414 686.102 150.743C686.102 174.71 688.6 189.735 693.596 195.817C698.665 201.9 705.399 204.941 713.798 204.941Z" fill="black"/>
<path d="M1268.4 430.411V283.785H1354.42V303.987H1297.5V346.128H1350.72V365.461H1297.5V410.209H1354.42V430.411H1268.4Z" fill="black"/>
<path d="M1194.8 431.28C1173.8 431.28 1159.9 425.162 1153.1 412.925C1146.36 400.688 1143 381.898 1143 356.555C1143 330.923 1146.47 312.169 1153.42 300.294C1160.37 288.419 1175.14 282.482 1197.74 282.482C1219.39 282.482 1233.54 288.057 1240.2 299.208C1246.94 310.286 1250.48 323.32 1250.85 338.308H1221.63C1221.27 324.478 1219.28 315.102 1215.66 310.178C1212.04 305.182 1206.1 302.684 1197.84 302.684C1189.3 302.684 1182.89 305.58 1178.62 311.373C1174.35 317.093 1172.21 332.588 1172.21 357.858C1172.21 380.088 1174.35 394.533 1178.62 401.195C1182.89 407.784 1189.37 411.078 1198.06 411.078C1205.95 411.078 1211.71 409.159 1215.33 405.322C1218.95 401.484 1220.98 394.461 1221.41 384.251V375.019H1199.8V357.098H1250.85V430.411H1234.88L1231.51 413.576C1226.37 425.234 1214.14 431.135 1194.8 431.28Z" fill="black"/>
<path d="M1020.38 430.411L1058.06 283.568H1100.42L1138.22 430.411H1108.35L1099.77 392.18H1058.93L1050.24 430.411H1020.38ZM1062.73 372.521H1096.08L1079.57 301.597H1079.14L1062.73 372.521Z" fill="black"/>
<path d="M908.199 430.411V283.785H976.19C990.744 283.785 999.976 288.202 1003.89 297.036C1007.8 305.869 1009.75 315.898 1009.75 327.121C1009.75 338.2 1007.69 347.902 1003.56 356.229C999.505 364.484 990.092 368.611 975.321 368.611H937.415V430.411H908.199ZM980.534 430.411L956.965 361.986L985.639 360.139L1011.71 430.411H980.534ZM937.415 350.581H966.306C972.026 350.581 975.828 348.482 977.71 344.282C979.593 340.082 980.534 334.471 980.534 327.447C980.534 320.206 979.557 314.486 977.602 310.286C975.719 306.087 971.954 303.987 966.306 303.987H937.415V350.581Z" fill="black"/>
<path d="M778.757 430.411L816.445 283.568H858.804L896.601 430.411H866.732L858.152 392.18H817.314L808.625 430.411H778.757ZM821.115 372.521H854.459L837.95 301.597H837.516L821.115 372.521Z" fill="black"/>
<path d="M709.018 431.28C688.02 431.28 674.117 425.162 667.311 412.925C660.577 400.688 657.21 381.898 657.21 356.555C657.21 330.923 660.686 312.169 667.637 300.294C674.588 288.419 689.359 282.482 711.951 282.482C733.601 282.482 747.756 288.057 754.418 299.208C761.152 310.286 764.7 323.32 765.062 338.308H735.845C735.483 324.478 733.492 315.102 729.872 310.178C726.251 305.182 720.314 302.684 712.059 302.684C703.515 302.684 697.107 305.58 692.835 311.373C688.563 317.093 686.427 332.588 686.427 357.858C686.427 380.088 688.563 394.533 692.835 401.195C697.107 407.784 703.588 411.078 712.276 411.078C720.169 411.078 725.925 409.159 729.546 405.322C733.166 401.484 735.194 394.461 735.628 384.251V375.019H714.014V357.098H765.062V430.411H749.096L745.729 413.576C740.588 425.234 728.351 431.135 709.018 431.28Z" fill="black"/>
<path d="M470.969 358.397L368.581 460.806L419.775 512L573.376 358.397L470.987 256.027L573.376 153.602L419.775 0L368.581 51.2124L430.24 112.872H190.195C189.617 112.874 157.372 112.982 142.27 114.375C112.427 117.128 95.8452 122.723 80.9815 129.79C66.7189 136.57 51.8282 146.99 41.2243 157.597C28.1722 170.654 18.9181 185.532 12.6039 198.716C6.72052 211.004 -0.000244141 233.483 -0.000244141 255.973C-0.000135529 278.464 6.72047 300.943 12.6039 313.231C18.9181 326.415 28.172 341.293 41.2243 354.35C51.8282 364.958 66.7189 375.377 80.9815 382.156C95.845 389.223 112.427 394.819 142.27 397.572C157.372 398.964 189.617 399.073 190.195 399.074L340.65 399.127L381.379 358.415L340.631 317.668H154.326C153.992 317.668 140.183 317.63 133.696 317.033C120.839 315.847 113.689 313.43 107.286 310.385C101.143 307.466 94.7231 302.985 90.1561 298.418C84.5349 292.794 80.5543 286.382 77.8348 280.705C75.3007 275.412 72.4086 265.731 72.4077 256.045C72.4077 246.357 75.3004 236.658 77.8348 231.367C80.5536 225.692 84.5396 219.291 90.1561 213.67C94.7238 209.101 101.142 204.606 107.286 201.685C113.689 198.642 120.84 196.223 133.696 195.038C140.184 194.44 153.993 194.402 154.326 194.402L430.276 194.332L368.581 256.009L470.969 358.397Z" fill="black"/>
<path d="M1871.75 253.428C1871.75 241.039 1867.96 228.419 1864.84 221.908C1861.24 214.384 1856.03 206.062 1848.84 198.874C1843.06 193.09 1834.67 187.208 1826.71 183.424C1818.51 179.528 1809.28 176.303 1791.62 174.674C1787.25 174.27 1780.03 174.039 1773.62 173.913C1770.48 173.852 1767.63 173.808 1765.58 173.79C1764.55 173.78 1763.72 173.775 1763.14 173.772H1549.52L1547.08 173.79C1545.03 173.808 1542.19 173.852 1539.04 173.913C1532.64 174.039 1525.42 174.27 1521.04 174.674C1503.39 176.302 1494.15 179.528 1485.95 183.424C1478 187.208 1469.61 193.089 1463.82 198.874C1456.64 206.062 1451.43 214.385 1447.82 221.908C1444.71 228.417 1440.91 241.038 1440.91 253.428C1440.91 265.818 1444.71 278.438 1447.82 284.947C1451.43 292.471 1456.64 300.794 1463.82 307.981C1469.61 313.766 1478 319.648 1485.95 323.432C1494.15 327.327 1503.39 330.553 1521.04 332.182C1525.42 332.586 1532.64 332.817 1539.04 332.942C1542.19 333.004 1545.03 333.047 1547.08 333.066C1548.11 333.075 1548.95 333.08 1549.52 333.084H1763.14C1763.72 333.08 1764.55 333.075 1765.58 333.066C1767.63 333.047 1770.48 333.004 1773.62 332.942C1780.03 332.817 1787.25 332.586 1791.62 332.182C1809.28 330.553 1818.51 327.327 1826.71 323.432C1834.67 319.648 1843.06 313.766 1848.84 307.981C1856.03 300.794 1861.24 292.471 1864.84 284.947C1867.96 278.437 1871.75 265.817 1871.75 253.428ZM1882.61 253.428C1882.61 267.653 1878.35 281.879 1874.63 289.65C1870.64 297.987 1864.77 307.395 1856.51 315.653C1849.81 322.361 1840.39 328.938 1831.38 333.225C1821.98 337.693 1811.49 341.26 1792.61 343.001C1787.79 343.445 1780.2 343.672 1773.84 343.796C1770.67 343.858 1767.79 343.901 1765.69 343.92C1764.64 343.93 1763.79 343.935 1763.21 343.938H1549.45C1548.87 343.935 1548.02 343.93 1546.98 343.92C1544.88 343.901 1542 343.859 1538.83 343.796C1532.46 343.672 1524.88 343.445 1520.05 343.001C1501.18 341.26 1490.69 337.693 1481.29 333.225C1472.27 328.938 1462.86 322.361 1456.15 315.653C1447.89 307.395 1442.02 297.987 1438.03 289.65C1434.31 281.879 1430.06 267.654 1430.06 253.428C1430.06 239.202 1434.31 224.977 1438.03 217.206C1442.02 208.868 1447.89 199.461 1456.15 191.202C1462.86 184.495 1472.27 177.918 1481.29 173.631C1490.69 169.163 1501.18 165.596 1520.05 163.855C1524.88 163.411 1532.46 163.184 1538.83 163.059C1542 162.997 1544.88 162.955 1546.98 162.936C1548.02 162.926 1548.87 162.921 1549.45 162.918H1763.21C1763.79 162.921 1764.64 162.926 1765.69 162.936C1767.79 162.955 1770.67 162.997 1773.84 163.059C1780.2 163.184 1787.79 163.411 1792.61 163.855C1811.49 165.596 1821.98 169.162 1831.38 173.631C1840.39 177.918 1849.81 184.495 1856.51 191.202C1864.77 199.461 1870.64 208.869 1874.63 217.206C1878.35 224.977 1882.61 239.202 1882.61 253.428Z" fill="black"/>
<path d="M1541.78 289.632C1537.54 289.632 1534.94 286.98 1534.94 282.525V220.211C1534.94 215.757 1537.54 213.105 1541.78 213.105H1566.71C1580.6 213.105 1589.56 220.583 1589.56 232.197C1589.56 240.417 1583.46 247.576 1575.62 248.849V249.274C1586.01 250.281 1593.28 257.759 1593.28 267.888C1593.28 281.359 1583.36 289.632 1567.02 289.632H1541.78ZM1548.62 245.349H1561.14C1570.68 245.349 1576.04 241.318 1576.04 234.212C1576.04 227.53 1571.43 223.765 1563.26 223.765H1548.62V245.349ZM1548.62 278.972H1563.9C1573.97 278.972 1579.33 274.783 1579.33 266.933C1579.33 259.138 1573.81 255.054 1563.31 255.054H1548.62V278.972ZM1609.88 289.632C1605.63 289.632 1603.03 286.98 1603.03 282.525V220.211C1603.03 215.757 1605.63 213.105 1609.88 213.105H1647.16C1650.92 213.105 1653.42 215.332 1653.42 218.886C1653.42 222.439 1650.92 224.666 1647.16 224.666H1616.72V245.349H1645.57C1649.07 245.349 1651.45 247.417 1651.45 250.758C1651.45 254.1 1649.12 256.221 1645.57 256.221H1616.72V278.071H1647.16C1650.92 278.071 1653.42 280.298 1653.42 283.851C1653.42 287.404 1650.92 289.632 1647.16 289.632H1609.88ZM1689.95 290.533C1685.71 290.533 1683.17 287.935 1683.17 283.427V224.666H1665.67C1661.95 224.666 1659.41 222.439 1659.41 218.886C1659.41 215.332 1661.9 213.105 1665.67 213.105H1714.3C1718.06 213.105 1720.56 215.332 1720.56 218.886C1720.56 222.439 1718.01 224.666 1714.3 224.666H1696.8V283.427C1696.8 287.935 1694.25 290.533 1689.95 290.533ZM1721.88 290.533C1717.69 290.533 1714.99 288.094 1714.99 284.222C1714.99 283.162 1715.25 281.677 1715.89 280.033L1738.11 219.628C1739.97 214.537 1743.04 212.203 1748.03 212.203C1753.07 212.203 1756.14 214.431 1758.05 219.575L1780.32 280.033C1780.96 281.783 1781.23 283.003 1781.23 284.222C1781.23 287.935 1778.36 290.533 1774.38 290.533C1770.67 290.533 1768.6 288.836 1767.38 284.753L1762.34 270.116H1733.76L1728.72 284.647C1727.45 288.783 1725.43 290.533 1721.88 290.533ZM1737 259.297H1759L1748.13 226.628H1747.76L1737 259.297Z" fill="black"/>
</svg>
